HIERARCHY
ROOT joint_Root
{
	OFFSET 0.0 0.0 0.0
	CHANNELS 6 Xposition Yposition Zposition Zrotation Xrotation Yrotation 
	JOINT Hips
	{
		OFFSET -17.1583 93.1646 452.98
		CHANNELS 6 Xposition Yposition Zposition Zrotation Xrotation Yrotation 
		JOINT Spine
		{
			OFFSET 15.7357 0.0 0.0
			CHANNELS 6 Xposition Yposition Zposition Zrotation Xrotation Yrotation 
			JOINT Chest
			{
				OFFSET 8.98455 -0.406207 0.0
				CHANNELS 6 Xposition Yposition Zposition Zrotation Xrotation Yrotation 
				JOINT Neck
				{
					OFFSET 16.3773 0.0 0.0
					CHANNELS 6 Xposition Yposition Zposition Zrotation Xrotation Yrotation 
					JOINT Head
					{
						OFFSET 6.45672 0.0 0.0
						CHANNELS 6 Xposition Yposition Zposition Zrotation Xrotation Yrotation 
						End Site
						{
							OFFSET 0.0 0.0 0.0
						}
					}
				}
				JOINT Shoulder_L
				{
					OFFSET 12.9942 -0.242716 4.98039
					CHANNELS 6 Xposition Yposition Zposition Zrotation Xrotation Yrotation 
					JOINT UpperArm_L
					{
						OFFSET 5.34809 0.0 0.0
						CHANNELS 6 Xposition Yposition Zposition Zrotation Xrotation Yrotation 
						JOINT LowerArm_L
						{
							OFFSET 24.3286 1.87007e-05 0.0
							CHANNELS 6 Xposition Yposition Zposition Zrotation Xrotation Yrotation 
							JOINT Hand_L
							{
								OFFSET 22.2916 0.0 0.0
								CHANNELS 6 Xposition Yposition Zposition Zrotation Xrotation Yrotation 
								End Site
								{
									OFFSET 0.0 0.0 0.0
								}
							}
						}
					}
				}
				JOINT Shoulder_R
				{
					OFFSET 12.9945 -0.242716 -4.98039
					CHANNELS 6 Xposition Yposition Zposition Zrotation Xrotation Yrotation 
					JOINT UpperArm_R
					{
						OFFSET -5.34813 0.0 0.0
						CHANNELS 6 Xposition Yposition Zposition Zrotation Xrotation Yrotation 
						JOINT LowerArm_R
						{
							OFFSET -24.3289 0.000322201 0.0
							CHANNELS 6 Xposition Yposition Zposition Zrotation Xrotation Yrotation 
							JOINT Hand_R
							{
								OFFSET -22.2915 -0.000108084 0.0
								CHANNELS 6 Xposition Yposition Zposition Zrotation Xrotation Yrotation 
								End Site
								{
									OFFSET 0.0 0.0 0.0
								}
							}
						}
					}
				}
			}
		}
		JOINT UpperLeg_L
		{
			OFFSET -2.19248 -6.46944 0.0
			CHANNELS 6 Xposition Yposition Zposition Zrotation Xrotation Yrotation 
			JOINT LowerLeg_L
			{
				OFFSET 39.0811 0.0 -1.23785e-05
				CHANNELS 6 Xposition Yposition Zposition Zrotation Xrotation Yrotation 
				JOINT Foot_L
				{
					OFFSET 40.9854 0.0 -1.26872e-05
					CHANNELS 6 Xposition Yposition Zposition Zrotation Xrotation Yrotation 
					JOINT Toes_L
					{
						OFFSET 11.7543 0.0 0.0
						CHANNELS 6 Xposition Yposition Zposition Zrotation Xrotation Yrotation 
						End Site
						{
							OFFSET 0.0 0.0 0.0
						}
					}
				}
			}
		}
		JOINT UpperLeg_R
		{
			OFFSET -2.19251 6.46944 0.0
			CHANNELS 6 Xposition Yposition Zposition Zrotation Xrotation Yrotation 
			JOINT LowerLeg_R
			{
				OFFSET -39.0811 -0.00228153 -0.0401928
				CHANNELS 6 Xposition Yposition Zposition Zrotation Xrotation Yrotation 
				JOINT Foot_R
				{
					OFFSET -40.9854 0.0 0.0
					CHANNELS 6 Xposition Yposition Zposition Zrotation Xrotation Yrotation 
					JOINT Toes_R
					{
						OFFSET -11.7543 0.0 0.0
						CHANNELS 6 Xposition Yposition Zposition Zrotation Xrotation Yrotation 
						End Site
						{
							OFFSET 0.0 0.0 0.0
						}
					}
				}
			}
		}
	}
}
MOTION
Frames:	5
Frame Time:	0.0333333
0.000000 0.000000 0.000000 0.000000 0.000000 -0.000000 0.934968 92.991600 0.183822 87.717900 0.183424 1.022670 15.735700 0.000005 -0.000001 76.572700 87.275400 -75.216900 8.984550 -0.406207 -0.000000 -2.448290 -1.385750 2.682050 16.377300 -0.000001 -0.000001 4.931400 0.923651 -2.369110 6.456720 -0.000001 -0.000000 1.781120 -0.544181 -1.015140 12.994200 -0.242716 4.980390 -92.828200 8.156030 -70.801200 5.348090 -0.000007 -0.000001 -73.820400 8.770080 2.509070 24.328600 0.000019 0.000005 13.711500 26.436500 -28.724000 22.291600 -0.000001 0.000005 -0.251352 4.944330 8.481510 12.994500 -0.242716 -4.980390 88.308700 5.390520 -72.552000 -5.348130 -0.000001 -0.000004 -70.584600 30.603300 -4.543650 -24.328900 0.000322 -0.000009 2.206700 7.170540 -17.163300 -22.291500 -0.000108 -0.000004 1.871310 5.222850 2.139840 -2.192480 -6.469440 -0.000000 -178.003000 0.144546 -1.238540 39.081100 -0.000007 -0.000012 0.166793 -0.520449 17.769900 40.985400 -0.000006 -0.000013 3.913160 10.827600 -71.276700 11.754300 -0.000000 0.000003 -0.000525 0.176031 -9.436590 -2.192510 6.469440 -0.000001 -177.091000 5.636860 -177.853000 -39.081100 -0.002282 -0.040193 0.025136 -0.099481 12.360800 -40.985400 0.000008 0.000006 -2.103820 2.128390 -68.803100 -11.754300 -0.000006 -0.000006 -0.010273 0.273331 -5.468110
0.000000 0.000000 0.000000 0.000000 0.000000 -0.000000 0.869851 92.989300 0.205897 87.695400 0.091347 0.908242 15.735700 0.000005 -0.000001 76.673600 87.291000 -75.305700 8.984550 -0.406207 -0.000000 -2.476410 -1.370640 2.706190 16.377300 -0.000001 -0.000001 4.902190 0.907929 -2.392890 6.456720 -0.000001 -0.000000 1.717860 -0.569971 -1.127410 12.994200 -0.242716 4.980390 -92.845000 8.181710 -70.750700 5.348090 -0.000007 -0.000001 -73.569400 7.929090 2.576870 24.328600 0.000019 0.000005 14.301100 26.448000 -29.784600 22.291600 -0.000001 0.000005 -0.058825 4.946030 8.446550 12.994500 -0.242716 -4.980390 88.303400 5.382040 -72.474600 -5.348130 -0.000001 -0.000004 -70.562700 30.694400 -4.609860 -24.328900 0.000322 -0.000009 2.179430 7.066400 -17.197500 -22.291500 -0.000108 -0.000004 1.974920 5.220880 2.190130 -2.192480 -6.469440 -0.000000 -177.925000 0.007707 -1.337300 39.081100 -0.000007 -0.000012 0.167022 -0.520703 17.784600 40.985400 -0.000006 -0.000013 3.873070 10.860100 -71.299800 11.754300 -0.000000 0.000003 -0.000488 0.175478 -9.459070 -2.192510 6.469440 -0.000001 -177.002000 5.508410 -177.932000 -39.081100 -0.002282 -0.040193 0.024921 -0.098946 12.306800 -40.985400 0.000008 0.000006 -2.032610 2.088250 -68.776600 -11.754300 -0.000006 -0.000006 -0.010178 0.272629 -5.496850
0.000000 0.000000 0.000000 0.000000 0.000000 -0.000000 0.793228 92.997700 0.210589 87.697900 0.030734 0.817577 15.735700 0.000005 -0.000001 76.351300 87.299600 -74.969100 8.984550 -0.406207 -0.000000 -2.499710 -1.397770 2.734010 16.377300 -0.000001 -0.000001 4.890030 0.912091 -2.452400 6.456720 -0.000001 -0.000000 1.675530 -0.598367 -1.289760 12.994200 -0.242716 4.980390 -92.871700 8.250560 -70.732500 5.348090 -0.000007 -0.000001 -73.208900 6.915000 2.751450 24.328600 0.000019 0.000005 15.080500 26.375200 -31.238300 22.291600 -0.000001 0.000005 0.376639 4.941760 8.534070 12.994500 -0.242716 -4.980390 88.309200 5.357190 -72.455300 -5.348130 -0.000001 -0.000004 -70.548500 30.567500 -4.615550 -24.328900 0.000322 -0.000009 2.225010 7.196580 -17.238700 -22.291500 -0.000108 -0.000004 1.909700 5.222130 2.158060 -2.192480 -6.469440 -0.000000 -177.874000 0.022469 -1.384600 39.081100 -0.000007 -0.000012 0.166865 -0.522117 17.723800 40.985400 -0.000006 -0.000013 3.797250 10.815100 -71.352400 11.754300 -0.000000 0.000003 -0.000595 0.177096 -9.393320 -2.192510 6.469440 -0.000001 -176.956000 5.550510 -177.967000 -39.081100 -0.002282 -0.040193 0.024133 -0.096140 12.206500 -40.985400 0.000008 0.000006 -2.003250 2.161790 -68.766400 -11.754300 -0.000006 -0.000006 -0.010497 0.274982 -5.400570
0.000000 0.000000 0.000000 0.000000 0.000000 -0.000000 0.692090 92.985500 0.215505 87.692800 0.051263 0.767131 15.735700 0.000005 -0.000001 75.930700 87.285100 -74.551700 8.984550 -0.406207 -0.000000 -2.480580 -1.442790 2.726890 16.377300 -0.000001 -0.000001 4.849800 0.847309 -2.498360 6.456720 -0.000001 -0.000000 1.629060 -0.641520 -1.388250 12.994200 -0.242716 4.980390 -92.873500 8.233470 -70.684400 5.348090 -0.000007 -0.000001 -72.821500 5.625000 2.824980 24.328600 0.000019 0.000005 16.174500 26.447600 -33.072800 22.291600 -0.000001 0.000005 0.817944 4.939040 8.589760 12.994500 -0.242716 -4.980390 88.290600 5.387080 -72.365900 -5.348130 -0.000001 -0.000004 -70.505000 30.556500 -4.646850 -24.328900 0.000322 -0.000009 2.214000 7.160420 -17.239500 -22.291500 -0.000108 -0.000004 1.912160 5.221120 2.183980 -2.192480 -6.469440 -0.000000 -177.799000 0.061250 -1.490390 39.081100 -0.000007 -0.000012 0.167633 -0.521372 17.824100 40.985400 -0.000006 -0.000013 3.737930 10.823100 -71.336300 11.754300 -0.000000 0.000003 -0.000523 0.176014 -9.437290 -2.192510 6.469440 -0.000001 -176.853000 5.525550 -178.058000 -39.081100 -0.002282 -0.040193 0.026306 -0.105508 12.282700 -40.985400 0.000008 0.000006 -1.846950 2.082080 -68.814300 -11.754300 -0.000006 -0.000006 -0.010426 0.274463 -5.421810
0.000000 0.000000 0.000000 0.000000 0.000000 -0.000000 0.604305 92.998800 0.238249 87.734300 -0.013888 0.686410 15.735700 0.000005 -0.000001 75.939800 87.294100 -74.562300 8.984550 -0.406207 -0.000000 -2.497940 -1.437650 2.723720 16.377300 -0.000001 -0.000001 4.822220 0.819617 -2.563340 6.456720 -0.000001 -0.000000 1.608220 -0.690801 -1.603230 12.994200 -0.242716 4.980390 -92.893400 8.268130 -70.635300 5.348090 -0.000007 -0.000001 -72.345000 4.177430 2.997710 24.328600 0.000019 0.000005 17.788900 26.623200 -35.601500 22.291600 -0.000001 0.000005 1.076780 4.925620 8.862700 12.994500 -0.242716 -4.980390 88.299100 5.361810 -72.371100 -5.348130 -0.000001 -0.000004 -70.515300 30.410300 -4.601570 -24.328900 0.000322 -0.000009 2.231160 7.224340 -17.221400 -22.291500 -0.000108 -0.000004 1.834110 5.223940 2.111700 -2.192480 -6.469440 -0.000000 -177.786000 0.062537 -1.451440 39.081100 -0.000007 -0.000012 0.165722 -0.520963 17.646600 40.985400 -0.000006 -0.000013 3.653940 10.775900 -71.342400 11.754300 -0.000000 0.000003 -0.000604 0.177234 -9.387700 -2.192510 6.469440 -0.000001 -176.839000 5.469760 -178.067000 -39.081100 -0.002282 -0.040193 0.024978 -0.100415 12.163200 -40.985400 0.000008 0.000006 -1.895090 2.106300 -68.762400 -11.754300 -0.000006 -0.000006 -0.010285 0.273418 -5.464540
